<?xml version="1.0" encoding="UTF-8" standalone="no"?>
<!-- Created with Inkscape (http://www.inkscape.org/) -->

<svg
   width="1000mm"
   height="1000mm"
   viewBox="0 0 1000 1000"
   version="1.1"
   id="svg5"
   sodipodi:docname="DeafNews.svg"
   inkscape:version="1.1.2 (b8e25be833, 2022-02-05)"
   inkscape:export-filename="C:\Users\Telly\OneDrive\Desktop\Logos\DeafNews.png"
   inkscape:export-xdpi="76.199997"
   inkscape:export-ydpi="76.199997"
   xmlns:inkscape="http://www.inkscape.org/namespaces/inkscape"
   xmlns:sodipodi="http://sodipodi.sourceforge.net/DTD/sodipodi-0.dtd"
   xmlns="http://www.w3.org/2000/svg"
   xmlns:svg="http://www.w3.org/2000/svg">
  <sodipodi:namedview
     id="namedview7"
     pagecolor="#ffffff"
     bordercolor="#000000"
     borderopacity="1"
     inkscape:pageshadow="0"
     inkscape:pageopacity="0"
     inkscape:pagecheckerboard="true"
     inkscape:document-units="mm"
     showgrid="false"
     width="1000mm"
     borderlayer="false"
     showguides="true"
     inkscape:guide-bbox="true"
     objecttolerance="20"
     guidetolerance="20"
     inkscape:snap-perpendicular="false"
     inkscape:snap-tangential="false"
     inkscape:zoom="0.183293"
     inkscape:cx="913.83743"
     inkscape:cy="1625.8123"
     inkscape:window-width="1920"
     inkscape:window-height="1009"
     inkscape:window-x="-8"
     inkscape:window-y="-8"
     inkscape:window-maximized="1"
     inkscape:current-layer="layer1" />
  <defs
     id="defs2" />
  <g
     inkscape:label="Layer 1"
     inkscape:groupmode="layer"
     id="layer1">
    <path
       id="path3296"
       style="fill:#ffffff;fill-opacity:1;stroke-width:0.332485"
       d="M 474.88487,1.5920616 A 409.95378,409.95378 0 0 0 64.93126,411.54606 409.95378,409.95378 0 0 0 474.88487,821.49971 409.95378,409.95378 0 0 0 884.83916,411.54606 409.95378,409.95378 0 0 0 474.88487,1.5920616 Z m 0,63.4884494 A 346.46536,346.46536 0 0 1 690.20346,140.26656 L 203.60552,626.8647 A 346.46536,346.46536 0 0 1 128.41969,411.54606 346.46536,346.46536 0 0 1 474.88487,65.080511 Z M 746.16488,196.22748 A 346.46536,346.46536 0 0 1 821.3507,411.54606 346.46536,346.46536 0 0 1 474.88487,758.01126 346.46536,346.46536 0 0 1 259.56626,682.82612 Z" />
    <path
       id="rect879"
       style="fill:#000000;stroke-width:0.26953"
       d="m 358.99687,1.59e-4 v 0.04875166 h -49.2526 c -33.70598,0 -60.84102,27.13503534 -60.84102,60.84102034 V 69.71374 A 409.95379,409.95379 0 0 1 474.88471,1.5922319 409.95379,409.95379 0 0 1 700.86665,69.537419 v -8.307812 c 0,-33.705987 -27.13559,-60.84102331 -60.84154,-60.84102331 h -55.0468 V 1.59e-4 Z m 341.86978,69.53726 V 241.52583 l 45.29834,-45.29835 a 346.46534,346.46534 0 0 1 75.18577,215.31873 346.46534,346.46534 0 0 1 -120.48411,262.24853 v 29.165 c 0,33.70594 -27.13557,60.84101 -60.84154,60.84101 H 535.72572 c -2.31208,0 -4.58937,-0.13969 -6.83295,-0.38843 h -17.79283 v 56.3127 A 409.95379,409.95379 0 0 0 884.83918,411.54621 409.95379,409.95379 0 0 0 700.86665,69.537419 Z M 511.09994,819.72502 a 409.95379,409.95379 0 0 1 -36.21523,1.77512 409.95379,409.95379 0 0 1 -36.21473,-1.77512 v 122.78507 c 0.46519,0.34096 0.70094,0.79613 0.70684,1.25396 h 5.42185 9.06185 7.2162 3.75149 7.24365 6.02965 11.97374 8.52977 9.89886 c 0.006,-1.24884 0.88208,-2.48336 2.59606,-3.1385 z m -72.42996,0 v -56.3127 H 415.9858 c -0.6464,0.0202 -1.29066,0.0488 -1.94213,0.0488 h -104.2994 c -33.70598,0 -60.84102,-27.13503 -60.84102,-60.84102 v -121.053 l -45.29783,45.29784 A 346.46534,346.46534 0 0 1 128.41967,411.54621 346.46534,346.46534 0 0 1 248.90325,149.29766 V 69.71374 A 409.95379,409.95379 0 0 0 64.931249,411.54621 409.95379,409.95379 0 0 0 438.66998,819.72502 Z M 248.90325,149.29766 V 581.56707 L 690.20341,140.26692 A 346.46534,346.46534 0 0 0 474.88471,65.080657 346.46534,346.46534 0 0 0 248.90325,149.29766 Z m 451.9634,524.49708 V 241.52583 L 259.56598,682.8265 a 346.46534,346.46534 0 0 0 215.31873,75.18523 346.46534,346.46534 0 0 0 225.98194,-84.21699 z M 431.55077,943.22731 c -0.05,0.0909 -0.081,0.16035 -0.0228,0.12445 0.0589,-0.0363 0.10964,-0.0854 0.16699,-0.12445 z m -57.41261,0.52169 c -0.86992,0.004 -1.7401,0.01 -2.61007,0.0151 h 4.8395 10.29608 3.02544 c -5.18371,0.003 -10.36731,0.009 -15.55095,-0.0151 z"
       inkscape:export-filename="C:\Users\Telly\OneDrive\Desktop\Logos\DeafNews.png"
       inkscape:export-xdpi="25.75"
       inkscape:export-ydpi="25.75" />
    <rect
       style="fill:#000000;stroke-width:0.265518"
       id="rect6798"
       width="451.96338"
       height="58.722534"
       x="248.90353"
       y="940.32971"
       ry="19.556101" />
  </g>
</svg>
