<?xml version="1.0" encoding="UTF-8" standalone="no"?>
<!-- Created with Inkscape (http://www.inkscape.org/) -->

<svg
   width="1000mm"
   height="1000mm"
   viewBox="0 0 1000 1000"
   version="1.1"
   id="svg5"
   sodipodi:docname="DeafNews2.svg"
   inkscape:version="1.1.2 (b8e25be833, 2022-02-05)"
   inkscape:export-filename="C:\Users\Telly\OneDrive\Desktop\Logos\DeafNews.png"
   inkscape:export-xdpi="76.199997"
   inkscape:export-ydpi="76.199997"
   xmlns:inkscape="http://www.inkscape.org/namespaces/inkscape"
   xmlns:sodipodi="http://sodipodi.sourceforge.net/DTD/sodipodi-0.dtd"
   xmlns="http://www.w3.org/2000/svg"
   xmlns:svg="http://www.w3.org/2000/svg">
  <sodipodi:namedview
     id="namedview7"
     pagecolor="#ffffff"
     bordercolor="#000000"
     borderopacity="1"
     inkscape:pageshadow="0"
     inkscape:pageopacity="0"
     inkscape:pagecheckerboard="true"
     inkscape:document-units="mm"
     showgrid="false"
     width="1000mm"
     borderlayer="false"
     showguides="true"
     inkscape:guide-bbox="true"
     objecttolerance="20"
     guidetolerance="20"
     inkscape:snap-perpendicular="false"
     inkscape:snap-tangential="false"
     inkscape:zoom="0.16"
     inkscape:cx="1121.875"
     inkscape:cy="1706.25"
     inkscape:window-width="1920"
     inkscape:window-height="1009"
     inkscape:window-x="-8"
     inkscape:window-y="-8"
     inkscape:window-maximized="1"
     inkscape:current-layer="layer1" />
  <defs
     id="defs2" />
  <g
     inkscape:label="Layer 1"
     inkscape:groupmode="layer"
     id="layer1">
    <path
       id="rect4430"
       style="fill:#000000;stroke-width:0.283731"
       d="m 359.78552,0.90898863 c -53.51312,0 -96.59462,43.08042837 -96.59462,96.59358437 V 713.86545 c 0,53.51312 43.0815,96.59411 96.59462,96.59411 H 467.11229 V 937.58513 H 292.2775 c -14.41502,0 -26.02013,11.60507 -26.02013,26.02013 v 10.11359 c 0,14.41503 11.60511,26.02008 26.02013,26.02008 h 426.33109 c 14.41503,0 26.0201,-11.60505 26.0201,-26.02008 v -10.11359 c 0,-14.41506 -11.60507,-26.02013 -26.0201,-26.02013 H 543.77428 V 810.45956 h 107.3268 c 53.51325,0 96.59408,-43.08099 96.59408,-96.59411 V 97.502573 c 0,-53.513156 -43.08083,-96.59358437 -96.59408,-96.59358437 z M 381.25656,24.513231 h 248.37347 c 50.39247,0 90.96137,40.568859 90.96137,90.961369 v 580.41934 c 0,50.39254 -40.5689,90.96087 -90.96137,90.96087 H 381.25656 c -50.39251,0 -90.96137,-40.56833 -90.96137,-90.96087 V 115.4746 c 0,-50.39251 40.56886,-90.961369 90.96137,-90.961369 z" />
    <path
       id="path6001"
       style="fill:#000000;stroke-width:0.258305"
       d="M 505.44305,67.652706 A 336.7596,336.7596 0 0 0 168.68323,404.41303 336.7596,336.7596 0 0 0 505.44305,741.17231 336.7596,336.7596 0 0 0 842.20284,404.4125 336.7596,336.7596 0 0 0 505.44305,67.652706 Z m 0,22.83168 A 313.92841,313.92841 0 0 1 718.05021,173.44573 L 274.64266,616.85329 A 313.92841,313.92841 0 0 1 191.51439,404.4125 313.92841,313.92841 0 0 1 505.44305,90.484386 Z M 736.40982,191.80533 A 313.92841,313.92841 0 0 1 819.37116,404.4125 313.92841,313.92841 0 0 1 505.44305,718.34115 313.92841,313.92841 0 0 1 293.00226,635.21288 Z" />
  </g>
</svg>
